<?xml version="1.0"?>
<svg xmlns:rdf="http://www.w3.org/1999/02/22-rdf-syntax-ns#" xmlns="http://www.w3.org/2000/svg" xmlns:cc="http://web.resource.org/cc/" xmlns:xlink="http://www.w3.org/1999/xlink" xmlns:dc="http://purl.org/dc/elements/1.1/" xmlns:svg="http://www.w3.org/2000/svg" id="svg2" viewBox="0 0 708.96 326.78" version="1.0">
  <g id="layer1" transform="translate(-20.567 -238.43)">
    <g id="g15423" fill-rule="evenodd">
      <path id="path2223" d="m21.181 301.9l-0.614-5.26 20.599 9.38 2.525 11.34 8.572 25.71 15.714-5.71 7.857-7.86h12.857l7.857 3.57 2.143-7.85-5-15 1.429-7.86 11.93-6.13 10.93 7.38-1.43 16.61-2.86 6.42 2.14 5.72 5 5 6.43-5 8.57 1.43 4.29 2.14 22.14-0.71 16.43-23.58 13.98-14.15 1.86 4.54-8.91 9.44-14.79 35.89-37.85 0.71-3.57 21.43-5 25 5.71 24.29-2.14 25.71-6.43 44.29-2.86 58.57 5 10.71v7.15h-12.86l-0.71-7.15-4.29-7.85-3.57-7.15 2.86-63.57 6.07-33.03-9.64-27.33 9.64 26.25-10.36 41.97 2.86 8.57-5.713 2.14-2.143 10-11.429 3.57-3.571-5.71 5-15.71 2.143-2.86-1.429-4.29 2.143-42.14-11.428-12.86-3.572-12.14 7.857-15 3.572-13.57 2.143-14.29-7.143-15v-9.28l-10 5-23.572 3.57-9.704-45.72-15.663-9.74z" fill="#f00"/>
      <path id="path3250" d="m192.3 558.07l1.42 4.29 9.29-0.72 9.29-8.57v-7.85l4.28-12.15-2.14-19.28 3.57-7.86-1.43-20 13.57-41.43 6.43-3.57 7.14 7.14 5 20 0.72 13.57 10.71 26.43 3.57 14.29 4.29 22.14 5 7.86 3.57 7.14 4.29 5.72 8.57-0.72 2.14-5-10-12.14 2.86-7.86-3.57-3.57v-14.29l-12.86-40.71-6.43-50.71 5-14.29-4.28-16.43 3.57-51.43 6.43-12.85 23.57-25.72 2.14-7.14-14.29-4.29-12.85 7.86-7.86 17.14-2.14 15 5.71 6.43 2.86-13.57 5-5.71 14.28-15-33.57 26.42 2.15-20-6.43-11.42h-15l-7.86 13.57 1.43 14.28 5 7.86-15 6.43-7.86 10.71-2.14 15.72-5.72 20.71 5 6.43 26.43-1.43 12.15 7.86 6.42-4.29-5.71-11.43-10.71-2.85-23.58 1.43 2.15-1.43 5.71-15 2.14 15-2.85 12.14-6.43 17.86-10 26.43-2.14 18.57-1.43 8.57-1.43 23.57 0.71 47.14-5 9.29-2.85 5.71z" fill="#ff00e0"/>
      <path id="path4558" d="m509.2 294.46l-5.75 7.66 2.55 7.02 11.49 15.33-3.83 3.19-7.02-3.19-11.49 1.28-1.91 9.58 5.11 7.02 24.89 2.55 12.76 1.92 3.19 13.41 3.83 0.64v-15.97l-7.02-5.74-20.42-9.58-8.3-4.47-9.57 18.52 3.83 12.13 4.46 22.99 1.92 10.86-6.38 11.49-1.28 13.41-1.28 12.77-7.02 23.63-2.55 27.46-6.38 28.1-7.02 40.87-8.94 8.3-0.63 7.02 7.65 2.56 6.39-5.11 0.63-7.03 7.02-1.27 2.56-10.22 2.55-17.24 7.02-16.61-1.91-7.66 5.74-7.02 3.83-20.44 10.21-24.9 7.66-8.31 8.93 10.22 6.39 26.18-3.2 9.58 3.2 5.75v40.87l-0.64 14.05 5.1 7.02 5.11 7.67 10.85 3.83 6.38-1.92-3.19-7.66-7.66-7.03 1.92-7.02 1.27-31.29v-21.71l-0.64-37.68-5.1-28.1-0.64-17.24-5.11-24.26 1.28-27.46 0.64-6.39-7.66-16.6 6.38-3.2-12.12 13.41-7.66 14.05 3.83 14.05 4.46-0.64-2.55-12.13 3.19 10.22 5.75-17.24 16.59-8.31 13.4-16.6-5.1-7.02-12.13-0.64-7.66 3.19-6.38-1.91-6.38 2.55-4.47-2.55 1.92-6.39-5.11-14.05-8.94-3.83-10.84 1.28z" fill="#00ff0e"/>
      <path id="path4603" d="m648.66 322.54l11.56-3.21 10.91 1.92 8.34 10.92v16.69l-13.48 6.42-14.76-1.93-6.42-12.84-8.98-5.13-10.27 4.49-10.27 1.93 10.27-10.92 10.27-2.57-1.93-5.13 3.85 3.85 5.14-10.91-10.27-2.57-7.06 3.21-3.85 7.06-25.68 14.77-9.62 8.98 8.98 11.56 13.48-1.93 19.9 0.65 7.06 8.99 3.85 26.96-4.5 21.19-2.56 12.19-16.05 31.46-7.06 26.32v15.41l9.63 30.18 1.93 12.2v6.42l-13.48 8.34 0.64 3.85 8.34 1.29 14.12-4.5 5.78-7.7 3.21-10.27-3.85-16.05-1.93-12.2-4.49-8.35-1.28-12.19 10.26-21.19 13.48-17.98 5.78-2.57 9.63 3.86 17.32 22.47 10.91 12.19-3.2 19.27-3.85 3.21v15.4l-6.42 23.76-1.29 5.13 1.29 6.42 19.89 3.86 12.84-3.21-2.57-7.71-11.55-5.78 3.21-14.76 7.06-27.61 3.21-18.62-5.14-19.26-19.89-28.89-7.7-10.27 3.2-14.77-4.49-15.4 2.57-32.1 6.42-12.2 14.12 2.56 17.33-3.21 8.98-10.91-12.19-17.33-19.26-8.99-11.55-9.63h-8.34l-4.5 10.91 4.5 6.42 7.7-5.13-1.29-5.14 1.29 6.42-6.42 5.78 3.21 3.21 7.06-5.14 14.76 10.92 3.85 7.06-4.49-5.78-12.2 0.64-7.06-1.92-4.49 1.28-35.94 3.21 4.49-17.33z" fill="#ffcf00"/>
      <path id="path5617" d="m342.22 549.88l-5.84 1.94-12.66-3.89-0.97 7.79 8.76 4.14 6.57 3.9 8.77-0.25 10.47 1.71 2.92-4.87-1.46-4.14 4.14-5.6 0.73-19.48 4.14-26.3-1.95-3.66 1.7-12.17 0.73-25.08 5.11-17.53 0.25-7.55 2.19-2.93 2.43 6.34 5.12 21.18 1.21 23.86 2.44 6.09-0.49 24.11 6.09 23.86-0.49 5.36 3.65 6.57 0.73 7.55 22.89 0.49 7.55-1.46-0.73-4.87-12.42-4.14-3.65-3.65 1.95-2.44-1.95-5.36 0.48-10.22-5.6-44.08-0.73-32.38-3.65-37.99 1.95-31.17 5.11-45.78 15.83 8.77 4.87 2.92-14.37 12.18-10.95 10.71 0.24 6.09 8.98 5.39 4.93-1.52 3.86-15.8 21.67-15.1-7.3-11.93-8.28-8.77-13.15-7.06-12.41-8.04-10.96 0.73-4.38-8.76 5.07-4.91-3.61-10.43-5.52-3.31-2.5-2.55-10.24 7.07-1.46 12.18 4.62 3.41-2.43 6.57-2.92-4.87 6.72-18.93 4.23-13.7 2.2-25.32 2.26-2.67-3.28-7.71-0.93-3.99-1.86 13.4-2.35 2.29-9.18 29.31-0.25 5.65-5.11 13.39-6.57 2.68-5.11 7.31-1.47 14.36 3.17 9.5 6.09 51.38-3.41 14.37-0.98 15.58-3.16 19.97 0.24 27.52 1.22 18.75-0.24 6.33-3.41 38.23 1.21 10.22-4.38 7.07-0.73 4.14z" fill="#0008ff"/>
    </g>
  </g>
  <metadata>
    <rdf:RDF>
      <cc:Work>
        <dc:format>image/svg+xml</dc:format>
        <dc:type rdf:resource="http://purl.org/dc/dcmitype/StillImage"/>
        <cc:license rdf:resource="http://creativecommons.org/licenses/publicdomain/"/>
        <dc:publisher>
          <cc:Agent rdf:about="http://openclipart.org/">
            <dc:title>Openclipart</dc:title>
          </cc:Agent>
        </dc:publisher>
        <dc:title>tecktonic-silhouettes</dc:title>
        <dc:date>2007-11-08T02:10:34</dc:date>
        <dc:description>Five people dancing tecktonik</dc:description>
        <dc:source>http://openclipart.org/detail/8027/tecktonic-silhouettes-by-ericlemerdy</dc:source>
        <dc:creator>
          <cc:Agent>
            <dc:title>ericlemerdy</dc:title>
          </cc:Agent>
        </dc:creator>
        <dc:subject>
          <rdf:Bag>
            <rdf:li>clip art</rdf:li>
            <rdf:li>clipart</rdf:li>
            <rdf:li>dance</rdf:li>
            <rdf:li>how i did it</rdf:li>
            <rdf:li>image</rdf:li>
            <rdf:li>media</rdf:li>
            <rdf:li>people</rdf:li>
            <rdf:li>png</rdf:li>
            <rdf:li>public domain</rdf:li>
            <rdf:li>silhouette</rdf:li>
            <rdf:li>svg</rdf:li>
            <rdf:li>tecktonic</rdf:li>
          </rdf:Bag>
        </dc:subject>
      </cc:Work>
      <cc:License rdf:about="http://creativecommons.org/licenses/publicdomain/">
        <cc:permits rdf:resource="http://creativecommons.org/ns#Reproduction"/>
        <cc:permits rdf:resource="http://creativecommons.org/ns#Distribution"/>
        <cc:permits rdf:resource="http://creativecommons.org/ns#DerivativeWorks"/>
      </cc:License>
    </rdf:RDF>
  </metadata>
</svg>
